# AST/ASF file generated using VICON BodyLanguage
# -----------------------------------------------
:version 1.10
:name VICON
:units
  mass 1.0
  length 0.45
  angle deg
:documentation
   .ast/.asf automatically generated from VICON data using
   VICON BodyBuilder and BodyLanguage model FoxedUp or BRILLIANT.MOD
:root
   order TX TY TZ RX RY RZ
   axis XYZ
   position 0 0 0  
   orientation 0 0 0 
:bonedata
  begin
     id 1 
     name lhipjoint
     direction 0.528046 -0.759594 0.379717 
     length 2.39752 
     axis 0 0 0  XYZ
  end
  begin
     id 2 
     name lfemur
     direction 0.34202 -0.939693 0  
     length 7.31175  
     axis 0 0 20  XYZ
    dof rx ry rz
    limits (-160.0 20.0)
           (-70.0 70.0)
           (-60.0 70.0)
  end
  begin
     id 3 
     name ltibia
     direction 0.34202 -0.939693 0   
     length 7.52482   
     axis 0 0 20   XYZ
    dof rx
    limits (-10.0 170.0)
  end
  begin
     id 4 
     name lfoot
     direction 0.0675379 -0.185559 0.980309   
     length 2.00961   
     axis -90 7.62852e-016 20   XYZ
    dof rx rz
    limits (-45.0 90.0)
           (-70.0 20.0)
  end
  begin
     id 5 
     name ltoes
     direction 1.5352e-011 -4.22286e-011 1   
     length 1.01383   
     axis -90 7.62852e-016 20   XYZ
    dof rx
    limits (-90.0 20.0)
  end
  begin
     id 6 
     name rhipjoint
     direction -0.510274 -0.769251 0.384544   
     length 2.36742  
     axis 0 0 0  XYZ 
  end
  begin
     id 7 
     name rfemur
     direction -0.34202 -0.939693 0   
     length 7.45325   
     axis 0 0 -20   XYZ
    dof rx ry rz
    limits (-160.0 20.0)
           (-70.0 70.0)
           (-70.0 60.0)
  end
  begin
     id 8 
     name rtibia
     direction -0.34202 -0.939693 0   
     length 7.49587   
     axis 0 0 -20   XYZ
    dof rx
    limits (-10.0 170.0)
 end
 begin
     id 9 
     name rfoot
     direction -0.106475 -0.292536 0.950308   
     length 2.20898  
     axis -90 -7.62852e-016 -20   XYZ
    dof rx rz
    limits (-45.0 90.0)
           (-20.0 70.0)
  end
  begin
     id 10 
     name rtoes
     direction -1.53597e-011 -4.22023e-011 1   
     length 1.10065   
     axis -90 -7.62852e-016 -20   XYZ
    dof rx
    limits (-90.0 20.0)
  end
  begin
     id 11 
     name lowerback
     direction 0.0260024 0.998026 -0.0571652   
     length 2.11214   
     axis 0 0 0   XYZ
    dof rx ry rz
    limits (-20.0 45.0)
           (-30.0 30.0)
           (-30.0 30.0)
  end
  begin
     id 12 
     name upperback
     direction 0.0216202 0.999542 -0.0211766   
     length 2.11689   
     axis 0 0 0   XYZ
    dof rx ry rz
    limits (-20.0 45.0)
           (-30.0 30.0)
           (-30.0 30.0)
  end
  begin
     id 13 
     name thorax
     direction 0.00883312 0.999944 0.00589057   
     length 2.11821   
     axis 0 0 0   XYZ
    dof rx ry rz
    limits (-20.0 45.0)
           (-30.0 30.0)
           (-30.0 30.0)
  end
  begin
     id 14 
     name lowerneck
     direction -0.059386 0.994433 0.0870401   
     length 1.81176   
     axis 0 0 0   XYZ
    dof rx ry rz
    limits (-20.0 45.0)
           (-30.0 30.0)
           (-30.0 30.0)
  end
  begin
     id 15 
     name upperneck
     direction 0.0506457 0.97328 -0.223967   
     length 1.82382   
     axis 0 0 0   XYZ
    dof rx ry rz
    limits (-20.0 45.0)
           (-30.0 30.0)
           (-30.0 30.0)
  end
  begin
     id 16
     name head
     direction 0.0205902 0.996147 -0.0852487  
     length 1.84805  
     axis 0 0 0   XYZ
    dof rx ry rz
    limits (-20.0 45.0)
           (-30.0 30.0)
           (-30.0 30.0)
  end
  begin
     id 17 
     name lclavicle
     direction 0.949493 0.303881 -0.0782325  
     length 3.60584  
     axis 0 0 0   XYZ
    dof ry rz
    limits (-20.0 10.0)
           (0.0 20.0)
  end
  begin
     id 18 
     name lhumerus
     direction 1 -4.48965e-011 1.48782e-027   
     length 4.95681   
     axis 180 -30 -90   XYZ
    dof rx ry rz
    limits (-60.0 90.0)
           (-90.0 90.0)
           (-90.0 90.0)
  end
  begin
     id 19
     name lradius
     direction 1 -4.48952e-011 2.06528e-027   
     length 3.40915   
     axis 180 -30 -90   XYZ
    dof rx
    limits (-10.0 170.0)
  end
  begin
     id 20
     name lwrist
     direction 1 -4.48964e-011 1.28021e-027   
     length 1.70457   
     axis -1.61767e-015 90 90   XYZ
    dof ry
    limits (-180.0 0.0)
 end
  begin
     id 21 
     name lhand
     direction 1 -4.49094e-011 2.54887e-027   
     length 0.616403   
     axis -1.63363e-015 90 90   XYZ
    dof rx rz
    limits (-90.0 90.0)
           (-45.0 45.0)
  end
  begin
     id 22 
     name lfingers
     direction 1 -4.49002e-011 5.11407e-027   
     length 0.49696   
     axis -3.26723e-015 90 90   XYZ
    dof rx
    limits (0.0 90.0)
  end
  begin
     id 23
     name lthumb
     direction 0.707107 -6.34998e-011 0.707107   
     length 0.713539   
     axis -90 45 -2.25915e-014   XYZ
    dof rx rz
    limits (-45.0 45.0)
           (-45.0 45.0)
  end
  begin
     id 24 
     name rclavicle
     direction -0.937751 0.334612 -0.0930482   
     length 3.46287  
     axis 0 0 0   XYZ 
    dof ry rz
    limits (-10.0 20.0)
           (-20.0 0.0)
  end
  begin
     id 25 
     name rhumerus
     direction -1 -4.48962e-011 3.59972e-027  
     length 5.352   
     axis 180 30 90   XYZ
    dof rx ry rz
    limits (-90.0 60.0)
           (-90.0 90.0)
           (-90.0 90.0)
  end
  begin
     id 26 
     name rradius
     direction -1 -4.48987e-011 -3.76925e-027   
     length 3.43721   
     axis 180 30 90   XYZ
    dof rx
    limits (-10.0 170.0)
  end
  begin
     id 27 
     name rwrist
     direction -1 -4.48943e-011 1.28112e-027   
     length 1.7186   
     axis -1.61767e-015 -90 -90   XYZ
    dof ry
    limits (-180.0 0.0)
  end
  begin
     id 28
     name rhand
     direction -1 -4.49027e-011 2.55483e-027   
     length 0.72009   
     axis -1.63363e-015 -90 -90   XYZ
    dof rx rz
    limits (-90.0 90.0)
           (-45.0 45.0)
  end
  begin
     id 29
     name rfingers
     direction -1 -4.48827e-011 5.14506e-027   
     length 0.580555   
     axis -3.26723e-015 -90 -90   XYZ
    dof rx
    limits (0.0 90.0)
  end
  begin
     id 30
     name rthumb
     direction -0.707107 -6.34936e-011 0.707107   
     length 0.833564   
     axis -90 -45 2.25915e-014   XYZ
    dof rx rz
    limits (-45.0 45.0)
           (-45.0 45.0)
  end
:hierarchy
  begin
    root lhipjoint rhipjoint lowerback
    lhipjoint lfemur
    lfemur ltibia
    ltibia lfoot
    lfoot ltoes
    rhipjoint rfemur
    rfemur rtibia
    rtibia rfoot
    rfoot rtoes
    lowerback upperback
    upperback thorax
    thorax lowerneck lclavicle rclavicle
    lowerneck upperneck
    upperneck head
    lclavicle lhumerus
    lhumerus lradius
    lradius lwrist
    lwrist lhand lthumb
    lhand lfingers
    rclavicle rhumerus
    rhumerus rradius
    rradius rwrist
    rwrist rhand rthumb
    rhand rfingers
  end

#!OML:ASF H:\Terrain\Patient Classification 1\Terrain2\Thursday\justin.ASF
:FULLY-SPECIFIED
:DEGREES
440
root -2.4293 17.3977 21.2237 -156.74 70.2553 -159.651
lowerback 8.8317 2.27935 2.51368
upperback 3.69637 3.4579 2.53613
thorax -1.12672 1.80628 0.872922
lowerneck -9.28286 -6.65009 -11.5653
upperneck 36.4513 -6.68923 5.07236
head 14.8367 -3.14108 3.29042
rclavicle 1.70706e-014 1.26228e-014
rhumerus -28.8208 -5.74144 -80.7267
rradius 45.8917
rwrist -14.043
rhand -24.1566 17.4654
rfingers 7.12502
rthumb 2.32613 -12.5017
lclavicle 1.70706e-014 1.26228e-014
lhumerus -39.1056 10.1516 78.403
lradius 33.0499
lwrist 1.8156
lhand -18.1505 19.3622
lfingers 7.12502
lthumb 8.12505 49.186
rfemur -17.7957 -11.4559 27.1862
rtibia 49.0505
rfoot -20.3347 2.2115
rtoes 6.04932
lfemur -23.0778 3.18229 -17.9094
ltibia 40.4047
lfoot -17.1657 -4.69592
ltoes 11.0783
441
root -2.39385 17.4035 21.2028 -155.97 70.2617 -158.794
lowerback 8.85445 2.30732 2.71891
upperback 3.65362 3.51456 2.55887
thorax -1.17239 1.83524 0.77442
lowerneck -9.29975 -6.65927 -11.5793
upperneck 36.4917 -6.6702 5.0021
head 14.8565 -3.1434 3.26697
rclavicle 9.54042e-014 1.0635e-014
rhumerus -28.8657 -5.59332 -80.7318
rradius 45.8252
rwrist -13.8452
rhand -24.227 17.851
rfingers 7.12502
rthumb 2.2581 -12.1168
lclavicle 9.54042e-014 1.0635e-014
lhumerus -39.3416 10.7782 78.0353
lradius 33.1543
lwrist 1.41766
lhand -16.5926 19.9293
lfingers 7.12502
lthumb 9.62843 49.6893
rfemur -18.6962 -11.4798 27.3684
rtibia 50.8984
rfoot -19.2086 2.32069
rtoes 4.16801
lfemur -22.7398 3.40635 -17.6354
ltibia 40.1455
lfoot -17.177 -4.6085
ltoes 9.76032
442
root -2.35554 17.4113 21.1788 -156.384 70.4453 -159.208
lowerback 8.84749 2.40621 2.45387
upperback 3.5897 3.61642 2.45214
thorax -1.24366 1.88061 0.80062
lowerneck -9.31658 -6.71943 -11.445
upperneck 36.5854 -6.7245 4.8416
head 14.8978 -3.16608 3.16956
rclavicle 8.52786e-014 -6.80837e-015
rhumerus -28.8877 -5.68273 -80.6924
rradius 45.6523
rwrist -13.617
rhand -24.3021 17.8922
rfingers 7.12502
rthumb 2.18556 -12.0763
lclavicle 8.52786e-014 -6.80837e-015
lhumerus -39.4305 10.5736 77.9748
lradius 33.0562
lwrist 1.77312
lhand -16.1847 19.7179
lfingers 7.12502
lthumb 10.0219 49.4593
rfemur -19.6572 -11.4203 27.004
rtibia 52.7802
rfoot -18.1422 2.35195
rtoes 3.65596
lfemur -22.373 3.41893 -17.8679
ltibia 39.875
lfoot -17.2254 -4.44258
ltoes 8.28477
443
root -2.31623 17.4146 21.1506 -157.826 70.6651 -160.556
lowerback 8.87593 2.4114 1.88695
upperback 3.65903 3.57118 2.34206
thorax -1.21525 1.85425 1.00792
lowerneck -9.4038 -6.68323 -11.5223
upperneck 36.5915 -6.62363 4.7768
head 14.9121 -3.14269 3.16986
rclavicle -3.30107e-014 -6.60959e-015
rhumerus -28.7585 -5.50523 -80.6165
rradius 45.5543
rwrist -13.3291
rhand -24.2825 17.7737
rfingers 7.12502
rthumb 2.2045 -12.1947
lclavicle -3.30107e-014 -6.60959e-015
lhumerus -39.3933 10.6839 77.942
lradius 32.8149
lwrist 1.99556
lhand -17.7179 19.3422
lfingers 7.12502
lthumb 8.54259 49.1494
rfemur -20.5162 -11.5027 26.2559
rtibia 54.7016
rfoot -17.4209 2.04681
rtoes 2.96194
lfemur -21.8494 3.34255 -18.4352
ltibia 39.6348
lfoot -17.501 -4.86943
ltoes 14.3237
444
root -2.28265 17.4143 21.1248 -158.425 70.7482 -160.844
lowerback 9.1223 2.40574 1.73823
upperback 3.78493 3.56312 2.33912
thorax -1.22921 1.85252 1.0805
lowerneck -9.50742 -6.65114 -11.625
upperneck 36.5347 -6.51602 4.68068
head 14.8995 -3.12536 3.15961
rclavicle -6.59592e-014 7.50412e-015
rhumerus -28.6053 -5.48349 -80.4664
rradius 45.443
rwrist -12.8224
rhand -24.1031 17.8804
rfingers 7.12502
rthumb 2.37781 -12.0861
lclavicle -6.59592e-014 7.50412e-015
lhumerus -39.3851 11.2571 77.7562
lradius 32.7375
lwrist 1.78078
lhand -18.2667 19.7602
lfingers 7.12502
lthumb 8.01291 49.5883
rfemur -21.2572 -11.6432 25.9179
rtibia 56.6799
rfoot -17.1281 1.81768
rtoes 3.34249
lfemur -21.212 3.33736 -18.5535
ltibia 39.4314
lfoot -17.7204 -5.31745
ltoes 18.2858
445
root -2.25733 17.4145 21.1068 -158.095 70.8341 -160.214
lowerback 9.49539 2.4413 1.84275
upperback 3.79567 3.63643 2.35916
thorax -1.41833 1.89055 1.01757
lowerneck -9.51492 -6.61294 -11.4967
upperneck 36.5202 -6.39435 4.41318
head 14.863 -3.08987 3.04302
rclavicle 2.49475e-014 -5.46658e-015
rhumerus -28.5587 -5.61394 -80.3636
rradius 45.2639
rwrist -12.3918
rhand -23.8038 18.1678
rfingers 7.12502
rthumb 2.66688 -11.7953
lclavicle 2.49475e-014 -5.46658e-015
lhumerus -39.5796 11.6957 77.5022
lradius 32.8733
lwrist 1.68151
lhand -17.76 20.1531
lfingers 7.12502
lthumb 8.50194 49.962
rfemur -22.1774 -11.6386 25.9498
rtibia 58.7591
rfoot -17.24 2.09534
rtoes 6.61284
lfemur -20.7022 3.51216 -18.3376
ltibia 39.2303
lfoot -17.4861 -5.12882
ltoes 12.2359
